<svg width="1198" height="144" viewBox="0 0 1198 144" fill="none" xmlns="http://www.w3.org/2000/svg">
<path opacity="0.05" d="M108.024 111.664H44.088L31.032 142H0.888L63.672 5.296H87.864L150.648 142H121.08L108.024 111.664ZM98.232 88.816L76.152 37.552L54.072 88.816H98.232ZM219.92 42.16C228.368 42.16 235.856 44.272 242.384 48.496C248.912 52.592 253.968 58.48 257.552 66.16C261.136 73.712 262.928 82.48 262.928 92.464C262.928 102.448 261.072 111.344 257.36 119.152C253.776 126.832 248.72 132.848 242.192 137.2C235.664 141.424 228.24 143.536 219.92 143.536C213.136 143.536 206.992 142.128 201.488 139.312C196.112 136.368 192.016 132.4 189.2 127.408V142H160.4V0.687988H189.392V58.288C192.208 53.296 196.304 49.392 201.68 46.576C207.184 43.632 213.264 42.16 219.92 42.16ZM211.664 121.456C218.832 121.456 224.336 118.96 228.176 113.968C232.016 108.976 233.936 101.808 233.936 92.464C233.936 83.504 232.016 76.592 228.176 71.728C224.336 66.864 218.832 64.432 211.664 64.432C204.496 64.432 198.928 66.928 194.96 71.92C191.12 76.784 189.2 83.76 189.2 92.848C189.2 102.064 191.12 109.168 194.96 114.16C198.928 119.024 204.496 121.456 211.664 121.456ZM327.989 143.536C317.621 143.536 308.533 141.488 300.725 137.392C293.045 133.296 287.093 127.408 282.869 119.728C278.773 112.048 276.725 103.088 276.725 92.848C276.725 82.608 278.773 73.648 282.869 65.968C287.093 58.288 293.045 52.4 300.725 48.304C308.533 44.208 317.621 42.16 327.989 42.16C338.229 42.16 347.189 44.208 354.869 48.304C362.549 52.4 368.437 58.288 372.533 65.968C376.757 73.648 378.869 82.608 378.869 92.848C378.869 103.088 376.757 112.048 372.533 119.728C368.437 127.408 362.549 133.296 354.869 137.392C347.189 141.488 338.229 143.536 327.989 143.536ZM327.989 121.456C335.157 121.456 340.597 119.088 344.309 114.352C348.149 109.616 350.069 102.448 350.069 92.848C350.069 83.376 348.149 76.272 344.309 71.536C340.597 66.672 335.157 64.24 327.989 64.24C320.693 64.24 315.125 66.672 311.285 71.536C307.445 76.272 305.525 83.376 305.525 92.848C305.525 111.92 313.013 121.456 327.989 121.456ZM490.328 44.656V142H462.104V127.792C459.032 132.912 455 136.816 450.008 139.504C445.016 142.192 439.384 143.536 433.112 143.536C420.952 143.536 411.864 140.144 405.848 133.36C399.832 126.576 396.824 116.336 396.824 102.64V44.656H425.816V103.216C425.816 114.992 430.872 120.88 440.984 120.88C447 120.88 451.864 118.832 455.576 114.736C459.288 110.64 461.144 105.264 461.144 98.608V44.656H490.328ZM550.317 66.352V104.176C550.317 109.552 551.725 113.52 554.541 116.08C557.357 118.512 561.005 119.728 565.485 119.728C568.301 119.728 571.501 119.28 575.085 118.384V140.848C570.477 142.64 564.909 143.536 558.381 143.536C546.349 143.536 537.133 140.144 530.733 133.36C524.461 126.576 521.325 117.04 521.325 104.752V66.352H502.893V44.656H521.325V21.808L550.317 12.4V44.656H575.085V66.352H550.317ZM737.274 111.664H673.338L660.282 142H630.138L692.922 5.296H717.114L779.898 142H750.33L737.274 111.664ZM727.482 88.816L705.402 37.552L683.322 88.816H727.482ZM849.746 42.16C872.786 42.16 884.306 55.792 884.306 83.056V142H855.314V84.4C855.314 77.616 854.034 72.688 851.474 69.616C849.042 66.416 845.138 64.816 839.762 64.816C833.362 64.816 828.242 66.864 824.402 70.96C820.562 75.056 818.642 80.56 818.642 87.472V142H789.65V0.687988H818.642V57.904C822.098 52.784 826.514 48.88 831.89 46.192C837.266 43.504 843.218 42.16 849.746 42.16ZM953.864 143.536C943.496 143.536 934.408 141.488 926.6 137.392C918.92 133.296 912.968 127.408 908.744 119.728C904.648 112.048 902.6 103.088 902.6 92.848C902.6 82.608 904.648 73.648 908.744 65.968C912.968 58.288 918.92 52.4 926.6 48.304C934.408 44.208 943.496 42.16 953.864 42.16C964.104 42.16 973.064 44.208 980.744 48.304C988.424 52.4 994.312 58.288 998.408 65.968C1002.63 73.648 1004.74 82.608 1004.74 92.848C1004.74 103.088 1002.63 112.048 998.408 119.728C994.312 127.408 988.424 133.296 980.744 137.392C973.064 141.488 964.104 143.536 953.864 143.536ZM953.864 121.456C961.032 121.456 966.472 119.088 970.184 114.352C974.024 109.616 975.944 102.448 975.944 92.848C975.944 83.376 974.024 76.272 970.184 71.536C966.472 66.672 961.032 64.24 953.864 64.24C946.568 64.24 941 66.672 937.16 71.536C933.32 76.272 931.4 83.376 931.4 92.848C931.4 111.92 938.888 121.456 953.864 121.456ZM1079.91 42.352C1084.01 42.352 1087.47 42.992 1090.28 44.272L1090.09 70.768C1085.35 68.592 1080.62 67.504 1075.88 67.504C1068.2 67.504 1062.31 69.616 1058.22 73.84C1054.25 77.936 1052.27 83.696 1052.27 91.12V142H1023.27V72.496C1023.27 62.128 1022.76 52.848 1021.74 44.656H1049L1050.92 61.36C1053.35 55.216 1057.13 50.544 1062.25 47.344C1067.5 44.016 1073.39 42.352 1079.91 42.352ZM1197.69 44.656V142H1169.08V127.6C1166.13 132.592 1161.97 136.496 1156.6 139.312C1151.22 142.128 1145.14 143.536 1138.36 143.536C1129.91 143.536 1122.42 141.488 1115.89 137.392C1109.49 133.296 1104.44 127.472 1100.73 119.92C1097.14 112.24 1095.35 103.408 1095.35 93.424C1095.35 83.44 1097.14 74.544 1100.73 66.736C1104.44 58.928 1109.56 52.912 1116.09 48.688C1122.61 44.336 1130.04 42.16 1138.36 42.16C1145.14 42.16 1151.22 43.632 1156.6 46.576C1161.97 49.52 1166.13 53.488 1169.08 58.48V44.656H1197.69ZM1146.81 121.456C1153.97 121.456 1159.48 119.024 1163.32 114.16C1167.16 109.296 1169.08 102.256 1169.08 93.04C1169.08 83.824 1167.16 76.784 1163.32 71.92C1159.48 66.928 1153.97 64.432 1146.81 64.432C1139.64 64.432 1134.07 66.992 1130.1 72.112C1126.13 77.232 1124.15 84.336 1124.15 93.424C1124.15 102.512 1126.07 109.488 1129.91 114.352C1133.88 119.088 1139.51 121.456 1146.81 121.456Z" fill="#101B3D"/>
</svg>
