<svg width="202" height="60" viewBox="0 0 202 60" fill="none" xmlns="http://www.w3.org/2000/svg">
<g clip-path="url(#clip0)">
<path d="M45.809 30.0022L33.7567 41.6077C33.1924 41.222 32.8573 40.5804 32.8632 39.8969V20.1076C32.8573 19.424 33.1924 18.7824 33.7567 18.3967L45.809 30.0022Z" fill="#2196F3"/>
<path d="M50.0259 25.9484L45.8087 30.0021L33.7565 18.3966C33.8019 18.3614 33.8492 18.3287 33.8981 18.2986C34.5351 17.9125 35.3307 17.9 35.9795 18.2659L50.0259 25.9484Z" fill="#4CAF50"/>
<path d="M55.1366 30.0023C55.1445 30.774 54.7252 31.4867 54.0469 31.8548L50.0259 34.056L45.8087 30.0023L50.0259 25.9485L54.0469 28.1498C54.7252 28.5178 55.1445 29.2306 55.1366 30.0023Z" fill="#FFC107"/>
<path d="M50.0259 34.0561L35.9795 41.7386C35.3293 42.0987 34.5367 42.0863 33.8981 41.7059C33.8492 41.6757 33.8019 41.643 33.7565 41.6078L45.8088 30.0023L50.0259 34.0561Z" fill="#F44336"/>
</g>
<path d="M77.88 30.196V36.244C77.34 36.52 76.656 36.742 75.828 36.91C75.012 37.066 74.178 37.144 73.326 37.144C72.03 37.144 70.908 36.886 69.96 36.37C69.012 35.842 68.286 35.086 67.782 34.102C67.29 33.118 67.044 31.942 67.044 30.574C67.044 29.23 67.29 28.066 67.782 27.082C68.286 26.098 69 25.348 69.924 24.832C70.86 24.304 71.958 24.04 73.218 24.04C74.118 24.04 74.946 24.178 75.702 24.454C76.47 24.718 77.124 25.102 77.664 25.606L76.998 26.992C76.386 26.488 75.786 26.128 75.198 25.912C74.61 25.696 73.956 25.588 73.236 25.588C71.844 25.588 70.782 26.014 70.05 26.866C69.33 27.718 68.97 28.954 68.97 30.574C68.97 32.242 69.342 33.508 70.086 34.372C70.83 35.224 71.928 35.65 73.38 35.65C74.352 35.65 75.288 35.506 76.188 35.218V31.618H73.2V30.196H77.88ZM84.6543 37.126C83.7663 37.126 82.9863 36.934 82.3143 36.55C81.6423 36.166 81.1203 35.62 80.7483 34.912C80.3883 34.204 80.2083 33.376 80.2083 32.428C80.2083 31.48 80.3883 30.652 80.7483 29.944C81.1203 29.224 81.6423 28.672 82.3143 28.288C82.9863 27.904 83.7663 27.712 84.6543 27.712C85.5303 27.712 86.3043 27.904 86.9763 28.288C87.6483 28.672 88.1643 29.224 88.5243 29.944C88.8963 30.652 89.0823 31.48 89.0823 32.428C89.0823 33.376 88.8963 34.204 88.5243 34.912C88.1643 35.62 87.6483 36.166 86.9763 36.55C86.3043 36.934 85.5303 37.126 84.6543 37.126ZM84.6363 35.686C85.4763 35.686 86.1183 35.41 86.5623 34.858C87.0063 34.306 87.2283 33.496 87.2283 32.428C87.2283 31.384 87.0003 30.58 86.5443 30.016C86.1003 29.452 85.4703 29.17 84.6543 29.17C83.8263 29.17 83.1843 29.452 82.7283 30.016C82.2723 30.58 82.0443 31.384 82.0443 32.428C82.0443 33.496 82.2663 34.306 82.7103 34.858C83.1663 35.41 83.8083 35.686 84.6363 35.686ZM95.2933 37.126C94.4053 37.126 93.6253 36.934 92.9533 36.55C92.2813 36.166 91.7593 35.62 91.3873 34.912C91.0273 34.204 90.8473 33.376 90.8473 32.428C90.8473 31.48 91.0273 30.652 91.3873 29.944C91.7593 29.224 92.2813 28.672 92.9533 28.288C93.6253 27.904 94.4053 27.712 95.2933 27.712C96.1693 27.712 96.9433 27.904 97.6153 28.288C98.2873 28.672 98.8033 29.224 99.1633 29.944C99.5353 30.652 99.7213 31.48 99.7213 32.428C99.7213 33.376 99.5353 34.204 99.1633 34.912C98.8033 35.62 98.2873 36.166 97.6153 36.55C96.9433 36.934 96.1693 37.126 95.2933 37.126ZM95.2753 35.686C96.1153 35.686 96.7573 35.41 97.2013 34.858C97.6453 34.306 97.8673 33.496 97.8673 32.428C97.8673 31.384 97.6393 30.58 97.1833 30.016C96.7393 29.452 96.1093 29.17 95.2933 29.17C94.4653 29.17 93.8233 29.452 93.3673 30.016C92.9113 30.58 92.6833 31.384 92.6833 32.428C92.6833 33.496 92.9053 34.306 93.3493 34.858C93.8053 35.41 94.4473 35.686 95.2753 35.686ZM110.396 27.928V36.838C110.396 38.218 110.03 39.256 109.298 39.952C108.578 40.66 107.504 41.014 106.076 41.014C104.696 41.014 103.49 40.714 102.458 40.114L102.764 38.692C103.328 38.992 103.868 39.214 104.384 39.358C104.912 39.502 105.47 39.574 106.058 39.574C107.75 39.574 108.596 38.71 108.596 36.982V35.02C108.32 35.548 107.918 35.968 107.39 36.28C106.862 36.58 106.25 36.73 105.554 36.73C104.762 36.73 104.054 36.544 103.43 36.172C102.818 35.8 102.338 35.272 101.99 34.588C101.654 33.904 101.486 33.118 101.486 32.23C101.486 31.342 101.654 30.556 101.99 29.872C102.338 29.188 102.818 28.66 103.43 28.288C104.054 27.904 104.762 27.712 105.554 27.712C106.25 27.712 106.862 27.862 107.39 28.162C107.918 28.45 108.32 28.864 108.596 29.404V27.928H110.396ZM105.968 35.272C106.784 35.272 107.426 35.002 107.894 34.462C108.362 33.922 108.596 33.178 108.596 32.23C108.596 31.282 108.362 30.538 107.894 29.998C107.438 29.446 106.796 29.17 105.968 29.17C105.152 29.17 104.504 29.446 104.024 29.998C103.556 30.538 103.322 31.282 103.322 32.23C103.322 33.166 103.556 33.91 104.024 34.462C104.504 35.002 105.152 35.272 105.968 35.272ZM113.245 23.752H115.045V37H113.245V23.752ZM125.63 32.5H119.15C119.21 34.624 120.176 35.686 122.048 35.686C123.092 35.686 124.046 35.344 124.91 34.66L125.468 35.956C125.06 36.316 124.538 36.604 123.902 36.82C123.278 37.024 122.648 37.126 122.012 37.126C120.56 37.126 119.42 36.712 118.592 35.884C117.764 35.044 117.35 33.898 117.35 32.446C117.35 31.522 117.53 30.7 117.89 29.98C118.262 29.26 118.778 28.702 119.438 28.306C120.098 27.91 120.848 27.712 121.688 27.712C122.912 27.712 123.872 28.108 124.568 28.9C125.276 29.692 125.63 30.79 125.63 32.194V32.5ZM121.724 29.062C121.04 29.062 120.482 29.266 120.05 29.674C119.618 30.082 119.342 30.664 119.222 31.42H124.028C123.956 30.652 123.722 30.07 123.326 29.674C122.93 29.266 122.396 29.062 121.724 29.062ZM133.037 24.184H138.365C139.709 24.184 140.753 24.514 141.497 25.174C142.253 25.822 142.631 26.71 142.631 27.838C142.631 28.966 142.247 29.86 141.479 30.52C140.723 31.168 139.685 31.492 138.365 31.492H134.891V37H133.037V24.184ZM138.149 30.016C139.037 30.016 139.703 29.83 140.147 29.458C140.603 29.086 140.831 28.546 140.831 27.838C140.831 27.142 140.603 26.608 140.147 26.236C139.703 25.864 139.037 25.678 138.149 25.678H134.891V30.016H138.149ZM144.903 23.752H146.703V37H144.903V23.752ZM157.846 27.928V37H156.046V35.452C155.782 35.992 155.386 36.406 154.858 36.694C154.342 36.982 153.736 37.126 153.04 37.126C152.236 37.126 151.528 36.934 150.916 36.55C150.316 36.166 149.848 35.626 149.512 34.93C149.176 34.222 149.008 33.4 149.008 32.464C149.008 31.528 149.176 30.7 149.512 29.98C149.86 29.26 150.34 28.702 150.952 28.306C151.564 27.91 152.26 27.712 153.04 27.712C153.736 27.712 154.342 27.862 154.858 28.162C155.374 28.45 155.77 28.864 156.046 29.404V27.928H157.846ZM153.472 35.686C154.288 35.686 154.918 35.404 155.362 34.84C155.818 34.264 156.046 33.46 156.046 32.428C156.046 31.384 155.818 30.58 155.362 30.016C154.918 29.452 154.282 29.17 153.454 29.17C152.638 29.17 151.996 29.464 151.528 30.052C151.072 30.628 150.844 31.432 150.844 32.464C150.844 33.484 151.072 34.276 151.528 34.84C151.996 35.404 152.644 35.686 153.472 35.686ZM168.94 27.928L164.71 37.738C164.242 38.806 163.654 39.586 162.946 40.078C162.25 40.582 161.386 40.918 160.354 41.086L159.958 39.682C160.81 39.49 161.452 39.238 161.884 38.926C162.328 38.626 162.682 38.17 162.946 37.558L163.27 36.802L159.454 27.928H161.38L164.224 34.948L167.122 27.928H168.94Z" fill="#181438"/>
<rect width="202" height="60" rx="2" stroke="#F7AF0D" stroke-width="6" mask="url(#path-1-inside-1)"/>
<defs>
<clipPath id="clip0">
<rect width="24" height="24" fill="white" transform="translate(32 18)"/>
</clipPath>
</defs>
</svg>
