<svg width="1184" height="202" viewBox="0 0 1184 202" fill="none" xmlns="http://www.w3.org/2000/svg">
<path opacity="0.05" d="M72.386 156.643C57.758 156.643 44.993 153.607 34.091 147.535C23.327 141.325 14.978 132.493 9.044 121.039C3.248 109.585 0.35 96.1989 0.35 80.8809C0.35 65.5629 3.248 52.2459 9.044 40.9299C14.978 29.6139 23.327 20.9199 34.091 14.8479C44.993 8.63787 57.758 5.53287 72.386 5.53287C87.014 5.53287 99.71 8.63787 110.474 14.8479C121.238 20.9199 129.518 29.6139 135.314 40.9299C141.11 52.2459 144.008 65.5629 144.008 80.8809C144.008 96.1989 141.11 109.585 135.314 121.039C129.518 132.493 121.238 141.325 110.474 147.535C99.71 153.607 87.014 156.643 72.386 156.643ZM72.386 131.389C84.806 131.389 94.466 127.042 101.366 118.348C108.404 109.654 111.923 97.1649 111.923 80.8809C111.923 64.5969 108.404 52.1769 101.366 43.6209C94.466 35.0649 84.806 30.7869 72.386 30.7869C59.966 30.7869 50.237 35.0649 43.199 43.6209C36.299 52.1769 32.849 64.5969 32.849 80.8809C32.849 97.3029 36.299 109.861 43.199 118.555C50.237 127.111 59.966 131.389 72.386 131.389ZM231.967 47.1399C256.807 47.1399 269.227 61.8369 269.227 91.2309V154.78H237.97V92.6799C237.97 85.3659 236.59 80.0529 233.83 76.7409C231.208 73.2909 226.999 71.5659 221.203 71.5659C214.303 71.5659 208.783 73.7739 204.643 78.1899C200.503 82.6059 198.433 88.5399 198.433 95.9919V154.78H167.176V79.8459C167.176 68.6679 166.624 58.6629 165.52 49.8309H194.914L196.984 66.3909C200.71 60.1809 205.54 55.4199 211.474 52.1079C217.546 48.7959 224.377 47.1399 231.967 47.1399ZM358.295 47.1399C367.403 47.1399 375.476 49.4169 382.514 53.9709C389.552 58.3869 395.003 64.7349 398.867 73.0149C402.731 81.1569 404.663 90.6099 404.663 101.374C404.663 112.138 402.662 121.729 398.66 130.147C394.796 138.427 389.345 144.913 382.307 149.605C375.269 154.159 367.265 156.436 358.295 156.436C350.981 156.436 344.357 154.918 338.423 151.882C332.627 148.708 328.211 144.43 325.175 139.048V154.78H294.125V2.42786H325.382V64.5279C328.418 59.1459 332.834 54.9369 338.63 51.9009C344.564 48.7269 351.119 47.1399 358.295 47.1399ZM349.394 132.631C357.122 132.631 363.056 129.94 367.196 124.558C371.336 119.176 373.406 111.448 373.406 101.374C373.406 91.7139 371.336 84.2619 367.196 79.0179C363.056 73.7739 357.122 71.1519 349.394 71.1519C341.666 71.1519 335.663 73.8429 331.385 79.2249C327.245 84.4689 325.175 91.9899 325.175 101.788C325.175 111.724 327.245 119.383 331.385 124.765C335.663 130.009 341.666 132.631 349.394 132.631ZM474.807 156.436C463.629 156.436 453.831 154.228 445.413 149.812C437.133 145.396 430.716 139.048 426.162 130.768C421.746 122.488 419.538 112.828 419.538 101.788C419.538 90.7479 421.746 81.0879 426.162 72.8079C430.716 64.5279 437.133 58.1799 445.413 53.7639C453.831 49.3479 463.629 47.1399 474.807 47.1399C485.847 47.1399 495.507 49.3479 503.787 53.7639C512.067 58.1799 518.415 64.5279 522.831 72.8079C527.385 81.0879 529.662 90.7479 529.662 101.788C529.662 112.828 527.385 122.488 522.831 130.768C518.415 139.048 512.067 145.396 503.787 149.812C495.507 154.228 485.847 156.436 474.807 156.436ZM474.807 132.631C482.535 132.631 488.4 130.078 492.402 124.972C496.542 119.866 498.612 112.138 498.612 101.788C498.612 91.5759 496.542 83.9169 492.402 78.8109C488.4 73.5669 482.535 70.9449 474.807 70.9449C466.941 70.9449 460.938 73.5669 456.798 78.8109C452.658 83.9169 450.588 91.5759 450.588 101.788C450.588 122.35 458.661 132.631 474.807 132.631ZM654.797 49.8309V154.78H623.954V139.255C620.78 144.637 616.295 148.846 610.499 151.882C604.703 154.918 598.148 156.436 590.834 156.436C581.726 156.436 573.653 154.228 566.615 149.812C559.715 145.396 554.264 139.117 550.262 130.975C546.398 122.695 544.466 113.173 544.466 102.409C544.466 91.6449 546.398 82.0539 550.262 73.6359C554.264 65.2179 559.784 58.7319 566.822 54.1779C573.86 49.4859 581.864 47.1399 590.834 47.1399C598.148 47.1399 604.703 48.7269 610.499 51.9009C616.295 55.0749 620.78 59.3529 623.954 64.7349V49.8309H654.797ZM599.942 132.631C607.67 132.631 613.604 130.009 617.744 124.765C621.884 119.521 623.954 111.931 623.954 101.995C623.954 92.0589 621.884 84.4689 617.744 79.2249C613.604 73.8429 607.67 71.1519 599.942 71.1519C592.214 71.1519 586.211 73.9119 581.933 79.4319C577.655 84.9519 575.516 92.6109 575.516 102.409C575.516 112.207 577.586 119.728 581.726 124.972C586.004 130.078 592.076 132.631 599.942 132.631ZM741.091 47.3469C745.507 47.3469 749.233 48.0369 752.269 49.4169L752.062 77.9829C746.956 75.6369 741.85 74.4639 736.744 74.4639C728.464 74.4639 722.116 76.7409 717.7 81.2949C713.422 85.7109 711.283 91.9209 711.283 99.9249V154.78H680.026V79.8459C680.026 68.6679 679.474 58.6629 678.37 49.8309H707.764L709.834 67.8399C712.456 61.2159 716.527 56.1789 722.047 52.7289C727.705 49.1409 734.053 47.3469 741.091 47.3469ZM868.063 2.42786V154.78H837.22V139.255C834.046 144.637 829.561 148.846 823.765 151.882C817.969 154.918 811.414 156.436 804.1 156.436C795.13 156.436 787.126 154.159 780.088 149.605C773.05 144.913 767.53 138.427 763.528 130.147C759.664 121.729 757.732 112.138 757.732 101.374C757.732 90.6099 759.664 81.1569 763.528 73.0149C767.53 64.7349 772.981 58.3869 779.881 53.9709C786.919 49.4169 794.992 47.1399 804.1 47.1399C811.138 47.1399 817.555 48.6579 823.351 51.6939C829.147 54.5919 833.632 58.6629 836.806 63.9069V2.42786H868.063ZM813.208 132.631C820.936 132.631 826.87 130.009 831.01 124.765C835.15 119.383 837.22 111.724 837.22 101.788C837.22 91.9899 835.081 84.4689 830.803 79.2249C826.663 73.8429 820.798 71.1519 813.208 71.1519C805.48 71.1519 799.477 73.7739 795.199 79.0179C790.921 84.2619 788.782 91.7139 788.782 101.374C788.782 111.31 790.921 119.038 795.199 124.558C799.477 129.94 805.48 132.631 813.208 132.631ZM893.293 49.8309H924.55V154.78H893.293V49.8309ZM925.585 0.564863V29.9589H892.258V0.564863H925.585ZM1014.89 47.1399C1039.73 47.1399 1052.15 61.8369 1052.15 91.2309V154.78H1020.89V92.6799C1020.89 85.3659 1019.51 80.0529 1016.75 76.7409C1014.13 73.2909 1009.92 71.5659 1004.12 71.5659C997.224 71.5659 991.704 73.7739 987.564 78.1899C983.424 82.6059 981.354 88.5399 981.354 95.9919V154.78H950.097V79.8459C950.097 68.6679 949.545 58.6629 948.441 49.8309H977.835L979.905 66.3909C983.631 60.1809 988.461 55.4199 994.395 52.1079C1000.47 48.7959 1007.3 47.1399 1014.89 47.1399ZM1183.24 49.8309V150.019C1183.24 166.717 1178.41 179.413 1168.75 188.107C1159.09 196.801 1145.01 201.148 1126.52 201.148C1109.82 201.148 1095.33 197.905 1083.05 191.419L1087.81 168.235C1100.51 174.583 1113.06 177.757 1125.48 177.757C1134.45 177.757 1141.15 175.618 1145.56 171.34C1149.98 167.2 1152.19 160.852 1152.19 152.296V134.08C1148.87 139.186 1144.25 143.464 1138.32 146.914C1132.38 150.226 1125.83 151.882 1118.65 151.882C1109.54 151.882 1101.47 149.743 1094.43 145.465C1087.4 141.049 1081.88 134.908 1077.87 127.042C1073.87 119.038 1071.87 109.861 1071.87 99.5109C1071.87 89.1609 1073.87 80.0529 1077.87 72.1869C1081.88 64.1829 1087.4 58.0419 1094.43 53.7639C1101.47 49.3479 1109.54 47.1399 1118.65 47.1399C1125.97 47.1399 1132.59 48.7269 1138.52 51.9009C1144.46 55.0749 1149.01 59.3529 1152.19 64.7349V49.8309H1183.24ZM1127.76 128.077C1135.35 128.077 1141.28 125.593 1145.56 120.625C1149.98 115.519 1152.19 108.481 1152.19 99.5109C1152.19 90.6789 1150.05 83.7789 1145.77 78.8109C1141.49 73.7049 1135.49 71.1519 1127.76 71.1519C1120.03 71.1519 1113.96 73.7049 1109.54 78.8109C1105.13 83.7789 1102.92 90.6789 1102.92 99.5109C1102.92 108.343 1105.13 115.312 1109.54 120.418C1113.96 125.524 1120.03 128.077 1127.76 128.077Z" fill="#101B3D"/>
</svg>
